# xmcd
#
# Track frame offsets:
#	150
#	23032
#	41287
#	64070
#	83505
#	103120
#	125432
#	144647
#	164420
#	181290
#	200385
#	214567
#	238447
#	260045
#	279450
#	305195
#	325547
#
# Disc length: 4737 seconds
#
# Revision: 1
# Processed by: cddbd v1.5PL3 Copyright (c) Steve Scherf et al.
# Submitted via: CDex 1.50Beta5
#
DISCID=f4127f11
DTITLE=I - I
DYEAR=2002
DGENRE=R&B
TTITLE0=zhane/Hey Mr.DJ [Remix]
TTITLE1=Rakim/Guess Who's Back
TTITLE2=Sounds Of Blackness/Optimistic [12" Never Say Die Mix]
TTITLE3=Razel/All I Know
TTITLE4=Boyz II Men/Thank You
TTITLE5=Blackstreet/No Diggity
TTITLE6=DMX, Method MAM, NAS, JA Rule and HOT Totti/Grand Finale
TTITLE7=Shades/I Believe [Remix]
TTITLE8=Honeyz/Summertime
TTITLE9=Method MAN Featuring Mary J. Blige/I'll Be There For You/You're All I Need To Get By [Puff Daddy Mmix]
TTITLE10=Redman/Blow Your Mind
TTITLE11=Public Enemy/Don't Believe The Hype
TTITLE12=LL Cool J/Mama Said Knock You Out
TTITLE13=Shanics/It's For You [Street Mix]
TTITLE14=GUY/Let's Stay Together [Extended Vocal Version]
TTITLE15=Mint Condition/Good For You Heart
TTITLE16=Chante Moore/Love's Taken Over [A.D 's Club Version]
EXTD=
EXTT0=
EXTT1=
EXTT2=
EXTT3=
EXTT4=
EXTT5=
EXTT6=
EXTT7=
EXTT8=
EXTT9=
EXTT10=
EXTT11=
EXTT12=
EXTT13=
EXTT14=
EXTT15=
EXTT16=
PLAYORDER=
